<svg xmlns="http://www.w3.org/2000/svg" viewBox="0 0 1200 900" role="img" aria-labelledby="title desc">
  <title id="title">Garlic shrimp pasta</title>
  <desc id="desc">A stylized bowl of pasta with shrimp, herbs, and parmesan.</desc>
  <rect width="1200" height="900" fill="#eef2ee"/>
  <rect x="88" y="88" width="1024" height="724" rx="34" fill="#ffffff"/>
  <ellipse cx="600" cy="510" rx="370" ry="210" fill="#26352f"/>
  <ellipse cx="600" cy="466" rx="330" ry="170" fill="#f4f0db"/>
  <path d="M354 470c90-104 160 86 252-22 96-112 178 58 258-52" fill="none" stroke="#d9a64c" stroke-width="34" stroke-linecap="round"/>
  <path d="M352 544c112-132 184 54 278-40 90-90 172 76 242-40" fill="none" stroke="#e7bf6b" stroke-width="30" stroke-linecap="round"/>
  <path d="M420 420c70-68 136 72 220-8 88-82 154 56 222-22" fill="none" stroke="#c9892c" stroke-width="24" stroke-linecap="round"/>
  <g fill="#df6f5b" stroke="#ad3e31" stroke-width="12">
    <path d="M420 364c76 2 110 58 86 112-68-8-104-48-86-112z"/>
    <path d="M750 354c74 8 104 70 72 120-66-16-96-62-72-120z"/>
    <path d="M610 588c76-10 118 42 102 100-70 2-112-32-102-100z"/>
  </g>
  <g fill="#1f7a53">
    <circle cx="476" cy="552" r="14"/>
    <circle cx="544" cy="396" r="12"/>
    <circle cx="718" cy="536" r="13"/>
    <circle cx="822" cy="454" r="11"/>
    <circle cx="640" cy="470" r="10"/>
  </g>
  <g fill="#fff7d8">
    <rect x="510" y="326" width="78" height="14" rx="7" transform="rotate(-22 549 333)"/>
    <rect x="708" y="622" width="70" height="14" rx="7" transform="rotate(18 743 629)"/>
    <rect x="632" y="356" width="58" height="12" rx="6" transform="rotate(14 661 362)"/>
  </g>
</svg>
