<svg xmlns="http://www.w3.org/2000/svg" viewBox="0 0 1200 900" role="img" aria-labelledby="title desc">
  <title id="title">Jasmine citrus spritz</title>
  <desc id="desc">A stylized sparkling citrus drink with ice and jasmine tea.</desc>
  <rect width="1200" height="900" fill="#eef4f5"/>
  <rect x="88" y="88" width="1024" height="724" rx="34" fill="#ffffff"/>
  <ellipse cx="600" cy="676" rx="248" ry="64" fill="#d8e2e1"/>
  <path d="M460 266h280l-38 390c-6 62-58 110-120 110s-114-48-120-110z" fill="#e9f5f6" stroke="#83aeb4" stroke-width="18"/>
  <path d="M488 424h224l-22 218c-5 46-44 82-90 82s-85-36-90-82z" fill="#f2cf69"/>
  <path d="M496 368h208l-6 62c-44 18-84-12-128 2-32 10-56 12-82 0z" fill="#dcebbb"/>
  <g fill="#ffffff" opacity="0.84">
    <rect x="530" y="468" width="64" height="64" rx="12" transform="rotate(-14 562 500)"/>
    <rect x="618" y="540" width="62" height="62" rx="12" transform="rotate(15 649 571)"/>
  </g>
  <g fill="#ef8f3d" stroke="#ffffff" stroke-width="10">
    <circle cx="704" cy="404" r="54"/>
    <path d="M704 350v108M650 404h108M666 366l76 76M742 366l-76 76"/>
  </g>
  <g fill="#f8f4df">
    <circle cx="538" cy="386" r="12"/>
    <circle cx="588" cy="342" r="10"/>
    <circle cx="634" cy="386" r="11"/>
  </g>
  <g fill="#ffffff">
    <circle cx="572" cy="500" r="7"/>
    <circle cx="652" cy="464" r="6"/>
    <circle cx="620" cy="626" r="7"/>
    <circle cx="540" cy="604" r="5"/>
  </g>
</svg>
